<svg width="63" height="93" viewBox="0 0 63 93" fill="none" xmlns="http://www.w3.org/2000/svg">
<path d="M34.52 12.616H22.616C21.2507 12.616 20.568 12.9573 20.568 13.64V93H7.128C4.22667 93 2.30667 92.5733 1.368 91.72C0.514667 90.7813 0.0880003 88.8613 0.0880003 85.96V7.752C0.0880003 4.76533 0.514667 2.80266 1.368 1.864C2.30667 0.925329 4.22667 0.455994 7.128 0.455994H34.52V12.616ZM41.688 52.808H53.848C57.3467 52.808 59.608 53.6187 60.632 55.24C61.656 56.776 62.168 59.2507 62.168 62.664V81.608C62.168 87.24 60.6747 90.696 57.688 91.976C56.2373 92.6587 54.4027 93 52.184 93H25.688V80.968H36.44C39.9387 80.968 41.688 79.7307 41.688 77.256V52.808ZM40.024 0.455994H52.184C55.5973 0.455994 57.7733 1.22399 58.712 2.75999C59.736 4.296 60.248 6.81333 60.248 10.312V34.888C60.248 39.8373 59.352 43.4213 57.56 45.64C55.8533 47.8587 52.2267 48.968 46.68 48.968H25.688V36.808H35.16C37.2933 36.808 38.616 36.296 39.128 35.272C39.7253 34.248 40.024 32.6693 40.024 30.536V0.455994Z" fill="#E28420"/>
</svg>
